<svg xmlns="http://www.w3.org/2000/svg" viewBox="0 0 28.502 28.501">
    <g data-name="Group 3904">
        <g data-name="Group 3899">
            <path data-name="Path 3319" d="M28.298 14.807c.113 0 .2-.234.2-.522s-.091-.522-.2-.522H24.59v-2.411h2.148c.076 0 .138-.234.138-.522s-.062-.522-.138-.522H24.59V7.829h3.708c.113 0 .2-.234.2-.522s-.091-.522-.2-.522H24.59V5.733a1.8 1.8 0 00-1.8-1.8h-1V.207c0-.056-.058-.107-.153-.144a1.054 1.054 0 00-.368-.06c-.289 0-.523.091-.523.2v3.726h-2.479V1.764c0-.038-.059-.073-.153-.1a1.5 1.5 0 00-.369-.041c-.289 0-.522.062-.522.138v2.165h-2.412V.2c0-.056-.059-.107-.153-.144a1.054 1.054 0 00-.368-.06c-.289 0-.522.091-.522.2v3.726h-2.412V1.757c0-.038-.058-.073-.153-.1a1.5 1.5 0 00-.368-.041c-.289 0-.523.062-.523.138v2.165H7.901V.193c0-.056-.059-.107-.153-.144a1.059 1.059 0 00-.369-.06c-.289 0-.522.091-.522.2v3.726H5.731a1.8 1.8 0 00-1.8 1.8v1.052H.211c-.113 0-.2.234-.2.522s.091.522.2.522h3.72v2.411H1.772c-.076 0-.138.234-.138.522s.063.522.138.522h2.159v2.411H.211c-.113 0-.2.234-.2.522s.091.522.2.522h3.72v2.411H1.772c-.076 0-.138.234-.138.522s.063.522.138.522h2.159v2.479H.211c-.113 0-.2.234-.2.522s.091.522.2.522h3.72v1.076a1.8 1.8 0 001.8 1.8h1.126v3.7c0 .112.234.2.522.2s.522-.091.522-.2v-3.7h2.411v2.141c0 .076.234.138.523.138s.521-.062.521-.138v-2.141h2.412v3.7c0 .112.233.2.522.2s.521-.091.521-.2v-3.7h2.412v2.141c0 .076.233.138.522.138s.521-.062.521-.138v-2.141h2.479v3.7c0 .112.234.2.523.2s.521-.091.521-.2v-3.7h1a1.8 1.8 0 001.8-1.8v-1.076h3.708c.113 0 .2-.234.2-.522s-.091-.522-.2-.522h-3.708V18.26h2.148c.076 0 .138-.234.138-.522s-.062-.522-.138-.522h-2.148v-2.411zm-4.86 7.987a.651.651 0 01-.65.65H5.726a.651.651 0 01-.65-.65V5.731a.651.651 0 01.65-.65h17.063a.651.651 0 01.65.65z"/>
        </g>
        <g data-name="Group 3900">
            <path data-name="Path 3320" d="M20.573 21.716H7.941a1.138 1.138 0 01-1.137-1.137V7.947A1.138 1.138 0 017.941 6.81h12.632a1.139 1.139 0 011.137 1.137v12.632a1.139 1.139 0 01-1.137 1.137zM7.941 7.758a.188.188 0 00-.188.189v12.632a.188.188 0 00.188.189h12.632a.189.189 0 00.188-.189V7.947a.189.189 0 00-.188-.189z"/>
        </g>
        <g data-name="Group 3903">
            <g data-name="Group 3901">
                <path data-name="Path 3321" d="M13.572 15.348H12.06l-.264.855h-1.18l1.678-4.576h1.037l1.691 4.576h-1.185zm-1.248-.852h.983l-.493-1.587z"/>
            </g>
            <g data-name="Group 3902">
                <path data-name="Path 3322" d="M17.499 16.206h-1.1V11.63h1.1z"/>
            </g>
        </g>
    </g>
</svg>
