<svg xmlns="http://www.w3.org/2000/svg" viewBox="0 0 53.508 60.55">
    <g data-name="Group 738">
        <g data-name="Group 353">
            <path data-name="Path 516" d="M26.949 50.11L9.973 40.282l.024-19.616 17-9.787 16.976 9.828-.024 19.616zM11.373 39.472l15.578 9.019 15.6-8.981.023-18-15.577-9.019-15.6 8.981z"/>
        </g>
        <g data-name="Group 354">
            <path data-name="Path 517" d="M51.637 40.215a2.217 2.217 0 00-.41-.2l.03-19.31a3.689 3.689 0 001.75-1.55 3.742 3.742 0 00-5.53-4.83l-17.45-10.1a3.743 3.743 0 10-7.26.69l-16.58 9.55a2.623 2.623 0 00-.57-.42 3.741 3.741 0 10-3.74 6.48 3.4 3.4 0 00.84.35l-.02 18.99v.01a3.667 3.667 0 00-2.19 1.71 3.742 3.742 0 005.53 4.83l17.22 9.97a3.741 3.741 0 107.43-.03l17.01-9.79a2.127 2.127 0 00.19.13 3.743 3.743 0 103.75-6.48zm-2.41-.46a3.767 3.767 0 00-2.71 1.83 3.7 3.7 0 00-.15 3.43l-16.45 9.48a3.562 3.562 0 00-1.07-.93 3.752 3.752 0 00-4.83.95l-16.78-9.72a3.735 3.735 0 00-2.55-4.96l.03-18.94a3.769 3.769 0 002.27-1.74 3.7 3.7 0 00.31-3.02l16.58-9.55a3.78 3.78 0 00.56.4 3.739 3.739 0 004.8-.91l17.04 9.86a3.733 3.733 0 001.61 4.59 3.917 3.917 0 001.37.47z"/>
        </g>
        <g data-name="Group 355">
            <path data-name="Path 518" d="M26.959 41.705l-9.7-5.617.015-11.21 9.714-5.594 9.7 5.617-.015 11.211zm-8.2-6.482l8.2 4.749 8.214-4.729.011-9.478-8.2-4.748-8.214 4.729z"/>
        </g>
        <g data-name="Group 356">
            <path data-name="Path 519" d="M26.968 34.464l-3.434-1.989v-3.969l3.441-1.981 3.434 1.989v3.97zm-1.934-2.853l1.936 1.121 1.939-1.117v-2.237l-1.936-1.12-1.939 1.116z"/>
        </g>
    </g>
</svg>
