<svg xmlns="http://www.w3.org/2000/svg" viewBox="0 0 58.18 49.55">
    <g data-name="Group 739">
        <g data-name="Group 576">
            <path data-name="Path 592" d="M29.272 23.151a6.423 6.423 0 01-6.415-6.416h2.2a4.22 4.22 0 004.215 4.216 4.22 4.22 0 004.215-4.216h2.2a6.422 6.422 0 01-6.415 6.416z"/>
        </g>
        <g data-name="Group 577">
            <path data-name="Path 593" d="M21.575 40.968h-2.2a4.22 4.22 0 00-4.215-4.215 4.22 4.22 0 00-4.216 4.215h-2.2a6.423 6.423 0 016.416-6.415 6.423 6.423 0 016.415 6.415z"/>
        </g>
        <g data-name="Group 579">
            <g data-name="Group 578">
                <circle data-name="Ellipse 93" cx="1.424" cy="1.424" r="1.424" transform="translate(8.918 29.089)"/>
            </g>
        </g>
        <g data-name="Group 581">
            <g data-name="Group 580">
                <circle data-name="Ellipse 94" cx="1.424" cy="1.424" r="1.424" transform="translate(18.777 29.089)"/>
            </g>
        </g>
        <g data-name="Group 583">
            <g data-name="Group 582">
                <circle data-name="Ellipse 95" cx="1.424" cy="1.424" r="1.424" transform="translate(36.781 29.089)"/>
            </g>
        </g>
        <g data-name="Group 585">
            <g data-name="Group 584">
                <circle data-name="Ellipse 96" cx="1.424" cy="1.424" r="1.424" transform="translate(46.64 29.089)"/>
            </g>
        </g>
        <g data-name="Group 587">
            <g data-name="Group 586">
                <path data-name="Path 594" d="M43.68 19.25a14.965 14.965 0 00.57-4.09A15.176 15.176 0 0029.09 0a15.176 15.176 0 00-15.16 15.16 14.964 14.964 0 00.57 4.09A15.164 15.164 0 000 34.39a15.176 15.176 0 0015.16 15.16 15.174 15.174 0 0013.93-9.19 15.2 15.2 0 0013.93 9.19 15.176 15.176 0 0015.16-15.16 15.164 15.164 0 00-14.5-15.14zM15.16 47.1A12.729 12.729 0 012.45 34.39a12.735 12.735 0 0112.71-12.71 2.088 2.088 0 01.25.01 15.208 15.208 0 0011.74 8.49 12.494 12.494 0 01.72 4.21A12.729 12.729 0 0115.16 47.1zm13.93-19.24a2.258 2.258 0 01-.26-.01 11.822 11.822 0 01-3.05-.43 12.673 12.673 0 01-7.3-5.3 12.5 12.5 0 01-1.38-2.76 12.682 12.682 0 01-.71-4.2 12.714 12.714 0 0112.7-12.71A12.722 12.722 0 0141.8 15.16a12.687 12.687 0 01-.72 4.2 12.5 12.5 0 01-1.38 2.76 12.682 12.682 0 01-7.29 5.3 11.883 11.883 0 01-3.05.43 2.434 2.434 0 01-.272.01zM43.02 47.1a12.72 12.72 0 01-12.7-12.71 12.494 12.494 0 01.72-4.21 15.176 15.176 0 0011.73-8.49 2.088 2.088 0 01.25-.01 12.729 12.729 0 0112.71 12.71A12.722 12.722 0 0143.02 47.1z"/>
            </g>
        </g>
        <g data-name="Group 589">
            <g data-name="Group 588">
                <path data-name="Path 595" d="M25.697 11.278a1.423 1.423 0 01-1.422 1.422 1.422 1.422 0 01-1.422-1.422 1.423 1.423 0 011.422-1.422 1.424 1.424 0 011.422 1.422z"/>
            </g>
        </g>
        <g data-name="Group 591">
            <g data-name="Group 590">
                <path data-name="Path 596" d="M35.556 11.278a1.423 1.423 0 01-1.422 1.422 1.422 1.422 0 01-1.422-1.422 1.423 1.423 0 011.422-1.422 1.424 1.424 0 011.422 1.422z"/>
            </g>
        </g>
        <g data-name="Group 592">
            <path data-name="Rectangle 846" d="M37.992 36.41h10.072v2.2H37.992z"/>
        </g>
    </g>
</svg>
