<svg xmlns="http://www.w3.org/2000/svg" viewBox="0 0 48.017 50.238">
    <g data-name="Awareness icon">
        <path data-name="Path 2615" d="M24.007 14.746l2.273 7h7.356l-5.952 4.324 2.273 7-5.951-4.324-5.951 4.324 2.273-7-5.951-4.324h7.356z"/>
        <g data-name="Group 2965">
            <g data-name="Group 2934">
                <g data-name="Group 2933">
                    <g data-name="Group 2932">
                        <path data-name="Path 2616" d="M27.456 6.815v2.076a15.447 15.447 0 00-3.442-.375 16.285 16.285 0 00-3.455.375V6.815a3.455 3.455 0 011.071-2.5 3.008 3.008 0 002.371 1.138 3.055 3.055 0 002.384-1.138.222.222 0 01.067.054 3.5 3.5 0 011.004 2.446z"/>
                    </g>
                    <path data-name="Path 2617" d="M26.398 2.384a2.306 2.306 0 01-.549 1.513 2.359 2.359 0 01-3.682 0 2.3 2.3 0 01-.549-1.513 2.39 2.39 0 014.781 0z"/>
                </g>
            </g>
            <g data-name="Group 2937">
                <g data-name="Group 2936">
                    <g data-name="Group 2935">
                        <path data-name="Path 2618" d="M37.557 12.339l-1.22 1.678a15.394 15.394 0 00-2.564-2.326 16.291 16.291 0 00-3.015-1.728l1.22-1.68a3.453 3.453 0 012.338-1.4 3.007 3.007 0 001.249 2.314 3.054 3.054 0 002.6.481.237.237 0 01.024.082 3.51 3.51 0 01-.632 2.579z"/>
                    </g>
                    <path data-name="Path 2619" d="M39.305 8.13a2.3 2.3 0 01-1.334.9 2.361 2.361 0 01-2.98-2.165 2.31 2.31 0 01.445-1.547 2.391 2.391 0 013.869 2.81z"/>
                </g>
            </g>
            <g data-name="Group 2940">
                <g data-name="Group 2939">
                    <g data-name="Group 2938">
                        <path data-name="Path 2620" d="M42.482 22.742l-1.974.641a15.36 15.36 0 00-.708-3.389 16.265 16.265 0 00-1.424-3.171l1.974-.641a3.452 3.452 0 012.712.245 3.005 3.005 0 00-.35 2.605 3.054 3.054 0 001.82 1.916.238.238 0 01-.03.08 3.514 3.514 0 01-2.02 1.714z"/>
                    </g>
                    <path data-name="Path 2621" d="M46.37 20.366a2.3 2.3 0 01-1.609-.055 2.359 2.359 0 01-1.138-3.5 2.3 2.3 0 011.27-.989 2.39 2.39 0 011.477 4.546z"/>
                </g>
            </g>
            <g data-name="Group 2943">
                <g data-name="Group 2942">
                    <g data-name="Group 2941">
                        <path data-name="Path 2622" d="M40.351 34.055l-1.974-.642a15.372 15.372 0 001.419-3.157 16.207 16.207 0 00.712-3.4l1.974.641a3.457 3.457 0 012.051 1.793 3 3 0 00-1.815 1.9 3.056 3.056 0 00.346 2.619.217.217 0 01-.072.047 3.513 3.513 0 01-2.641.199z"/>
                    </g>
                    <path data-name="Path 2623" d="M44.893 34.42a2.3 2.3 0 01-1.27-.99 2.36 2.36 0 011.138-3.5 2.309 2.309 0 011.609-.055 2.391 2.391 0 01-1.477 4.547z"/>
                </g>
            </g>
            <g data-name="Group 2946">
                <g data-name="Group 2945">
                    <g data-name="Group 2944">
                        <path data-name="Path 2624" d="M31.977 41.954l-1.22-1.68a15.435 15.435 0 003-1.719 16.22 16.22 0 002.574-2.335l1.22 1.68a3.454 3.454 0 01.6 2.656 3 3 0 00-2.586.472 3.053 3.053 0 00-1.26 2.322.237.237 0 01-.086 0 3.508 3.508 0 01-2.242-1.396z"/>
                    </g>
                    <path data-name="Path 2625" d="M35.437 44.918a2.308 2.308 0 01-.445-1.547 2.36 2.36 0 012.98-2.164 2.3 2.3 0 011.334.9 2.391 2.391 0 01-3.869 2.81z"/>
                </g>
            </g>
            <g data-name="Group 2949">
                <g data-name="Group 2948">
                    <g data-name="Group 2947">
                        <path data-name="Path 2626" d="M20.559 43.423v-2.076a15.39 15.39 0 003.442.375 16.269 16.269 0 003.454-.375v2.076a3.456 3.456 0 01-1.071 2.5 3 3 0 00-2.371-1.139 3.051 3.051 0 00-2.384 1.139.243.243 0 01-.066-.054 3.509 3.509 0 01-1.004-2.446z"/>
                    </g>
                    <path data-name="Path 2627" d="M21.618 47.853a2.3 2.3 0 01.549-1.514 2.359 2.359 0 013.682 0 2.309 2.309 0 01.549 1.514 2.39 2.39 0 01-4.781 0z"/>
                </g>
            </g>
            <g data-name="Group 2952">
                <g data-name="Group 2951">
                    <g data-name="Group 2950">
                        <path data-name="Path 2628" d="M10.459 37.901l1.22-1.68a15.356 15.356 0 002.564 2.326 16.232 16.232 0 003.015 1.728l-1.22 1.68a3.452 3.452 0 01-2.338 1.4 3.008 3.008 0 00-1.249-2.314 3.05 3.05 0 00-2.6-.479.241.241 0 01-.024-.083 3.509 3.509 0 01.632-2.578z"/>
                    </g>
                    <path data-name="Path 2629" d="M8.71 42.108a2.3 2.3 0 011.334-.9 2.361 2.361 0 012.981 2.161 2.31 2.31 0 01-.445 1.547 2.391 2.391 0 01-3.868-2.81z"/>
                </g>
            </g>
            <g data-name="Group 2955">
                <g data-name="Group 2954">
                    <g data-name="Group 2953">
                        <path data-name="Path 2630" d="M5.534 27.495l1.974-.641a15.36 15.36 0 00.708 3.389 16.268 16.268 0 001.424 3.17l-1.974.642a3.456 3.456 0 01-2.712-.245 3.007 3.007 0 00.35-2.607 3.051 3.051 0 00-1.82-1.915.229.229 0 01.03-.08 3.509 3.509 0 012.02-1.713z"/>
                    </g>
                    <path data-name="Path 2631" d="M1.646 29.871a2.309 2.309 0 011.609.055 2.359 2.359 0 011.138 3.5 2.3 2.3 0 01-1.269.99 2.391 2.391 0 01-1.477-4.547z"/>
                </g>
            </g>
            <g data-name="Group 2958">
                <g data-name="Group 2957">
                    <g data-name="Group 2956">
                        <path data-name="Path 2632" d="M7.666 16.183l1.974.641a15.393 15.393 0 00-1.419 3.158 16.213 16.213 0 00-.712 3.4l-1.974-.641a3.461 3.461 0 01-2.051-1.793 3.007 3.007 0 001.816-1.9 3.055 3.055 0 00-.346-2.618.22.22 0 01.072-.047 3.5 3.5 0 012.64-.2z"/>
                    </g>
                    <path data-name="Path 2633" d="M3.125 15.821a2.3 2.3 0 011.269.989 2.36 2.36 0 01-1.138 3.5 2.3 2.3 0 01-1.609.055 2.39 2.39 0 011.477-4.546z"/>
                </g>
            </g>
            <g data-name="Group 2961">
                <g data-name="Group 2960">
                    <g data-name="Group 2959">
                        <path data-name="Path 2634" d="M16.038 8.283l1.22 1.68a15.416 15.416 0 00-3 1.72 16.214 16.214 0 00-2.574 2.334l-1.22-1.678a3.454 3.454 0 01-.6-2.656 3.005 3.005 0 002.586-.473 3.051 3.051 0 001.26-2.322.217.217 0 01.086 0 3.505 3.505 0 012.242 1.395z"/>
                    </g>
                    <path data-name="Path 2635" d="M12.579 5.32a2.3 2.3 0 01.444 1.547 2.36 2.36 0 01-2.979 2.165 2.3 2.3 0 01-1.334-.9 2.391 2.391 0 013.869-2.81z"/>
                </g>
            </g>
            <g data-name="Group 2964">
                <g data-name="Group 2963">
                    <g data-name="Group 2962">
                        <path data-name="Path 2636" d="M27.456 6.815v2.076a15.447 15.447 0 00-3.442-.375 16.285 16.285 0 00-3.455.375V6.815a3.455 3.455 0 011.071-2.5 3.008 3.008 0 002.371 1.138 3.055 3.055 0 002.384-1.138.222.222 0 01.067.054 3.5 3.5 0 011.004 2.446z"/>
                    </g>
                    <path data-name="Path 2637" d="M26.398 2.384a2.306 2.306 0 01-.549 1.513 2.359 2.359 0 01-3.682 0 2.3 2.3 0 01-.549-1.513 2.39 2.39 0 014.781 0z"/>
                </g>
            </g>
        </g>
    </g>
</svg>
