<svg xmlns="http://www.w3.org/2000/svg" viewBox="0 0 27.734 26.201">
    <g data-name="Group 3893">
        <g data-name="Group 3881">
            <g data-name="Group 3880">
                <path data-name="Path 3308" d="M23.311 14.95H11.05a.538.538 0 00-.537.537.537.537 0 00.537.537h12.261a.537.537 0 100-1.074z"/>
            </g>
        </g>
        <g data-name="Group 3883">
            <g data-name="Group 3882">
                <path data-name="Path 3309" d="M23.311 20.316H11.05a.538.538 0 00-.537.537.537.537 0 00.537.537h12.261a.537.537 0 100-1.074z"/>
            </g>
        </g>
        <g data-name="Group 3886">
            <g data-name="Group 3885">
                <g data-name="Group 3884">
                    <path data-name="Path 3310" d="M24.41 3.205h-2.25v-1.6a1.6 1.6 0 00-1.6-1.6 1.6 1.6 0 00-1.6 1.6v1.6H8.78v-1.6a1.6 1.6 0 00-1.6-1.6 1.6 1.6 0 00-1.6 1.6v1.6H3.33A3.328 3.328 0 000 6.53v16.347a3.328 3.328 0 003.325 3.325H24.41a3.328 3.328 0 003.325-3.325V6.53a3.328 3.328 0 00-3.325-3.325zm-4.48-1.6a.628.628 0 01.627-.627.628.628 0 01.627.627v4.111a.628.628 0 01-.627.627.628.628 0 01-.627-.627zm-13.379 0a.628.628 0 01.627-.627.628.628 0 01.627.627v4.111a.628.628 0 01-.627.627.628.628 0 01-.627-.627zM26.76 22.879a2.352 2.352 0 01-2.35 2.349H3.325a2.352 2.352 0 01-2.349-2.349V10.651c.065.006.131.009.2.009h25.246a2.194 2.194 0 00.339-.026zm0-13.267a2.2 2.2 0 00-.339-.026H1.175c-.068 0-.134 0-.2.009V6.532a2.352 2.352 0 012.349-2.349h2.25v1.533a1.6 1.6 0 001.6 1.6 1.6 1.6 0 001.6-1.6V4.183h10.174v1.533a1.6 1.6 0 001.6 1.6 1.6 1.6 0 001.6-1.6V4.183h2.25a2.352 2.352 0 012.35 2.349z"/>
                </g>
            </g>
        </g>
        <g data-name="Group 3889">
            <g data-name="Group 3888">
                <g data-name="Group 3887">
                    <path data-name="Path 3311" d="M6.616 13.31H5.51a1.609 1.609 0 00-1.608 1.607v1.107a1.609 1.609 0 001.607 1.607h1.106a1.608 1.608 0 001.607-1.607v-1.107a1.608 1.608 0 00-1.606-1.607zm.631 2.714a.632.632 0 01-.631.631H5.51a.632.632 0 01-.631-.631v-1.107a.632.632 0 01.631-.631h1.106a.632.632 0 01.631.631z"/>
                </g>
            </g>
        </g>
        <g data-name="Group 3892">
            <g data-name="Group 3891">
                <g data-name="Group 3890">
                    <path data-name="Path 3312" d="M6.616 18.675H5.51a1.609 1.609 0 00-1.607 1.607v1.107a1.609 1.609 0 001.607 1.607h1.106a1.608 1.608 0 001.607-1.607v-1.107a1.608 1.608 0 00-1.607-1.607zm.631 2.714a.632.632 0 01-.631.631H5.51a.632.632 0 01-.631-.631v-1.107a.632.632 0 01.631-.631h1.106a.632.632 0 01.631.631z"/>
                </g>
            </g>
        </g>
    </g>
</svg>
