<svg xmlns="http://www.w3.org/2000/svg" viewBox="0 0 49.13 48.715">
    <g data-name="Group 740">
        <g data-name="Group 531">
            <g data-name="Group 518">
                <g data-name="Group 517">
                    <path data-name="Path 566" d="M29.706 1.627A7.15 7.15 0 0024.744 0h-7.121v18.556a8.432 8.432 0 012.54-2.19v-4.615h4.547a7.511 7.511 0 005.046-1.51 5.449 5.449 0 001.76-4.332 5.5 5.5 0 00-1.81-4.282zm-1.842 7.087a4.585 4.585 0 01-3.12.963h-4.581V2.093h4.73a4.237 4.237 0 012.971 1.062 3.665 3.665 0 011.1 2.772 3.531 3.531 0 01-1.096 2.787z"/>
                </g>
            </g>
            <g data-name="Group 520">
                <g data-name="Group 519">
                    <path data-name="Path 567" d="M45.744 12.332l-3.552-6.174-15.917 9.178a8.547 8.547 0 013 1.212l4-2.307 2.274 3.95a7.518 7.518 0 003.834 3.6 5.428 5.428 0 004.631-.647 5.515 5.515 0 002.822-3.7 7.159 7.159 0 00-1.092-5.112zm-1.162 4.3a3.685 3.685 0 01-1.859 2.324 3.577 3.577 0 01-2.954.448 4.6 4.6 0 01-2.39-2.224l-2.291-3.967 6.573-3.8 2.357 4.1a4.26 4.26 0 01.564 3.118z"/>
                </g>
            </g>
            <g data-name="Group 522">
                <g data-name="Group 521">
                    <path data-name="Path 568" d="M32.93 21.162a8.6 8.6 0 01.482 2.872 2.387 2.387 0 01-.017.348l4.282 2.473-2.273 3.934a7.43 7.43 0 00-1.2 5.129 5.418 5.418 0 002.872 3.685 5.493 5.493 0 004.6.581 7.089 7.089 0 003.884-3.486l3.568-6.174zm10.756 14.623a4.256 4.256 0 01-2.423 2.042 3.625 3.625 0 01-2.938-.448 3.463 3.463 0 01-1.859-2.324 4.565 4.565 0 01.73-3.2l2.291-3.95 6.572 3.785z"/>
                </g>
            </g>
            <g data-name="Group 524">
                <g data-name="Group 523">
                    <path data-name="Path 569" d="M28.963 31.702v5.262h-4.547a7.437 7.437 0 00-5.03 1.51 5.4 5.4 0 00-1.759 4.332 5.466 5.466 0 001.793 4.282 7.069 7.069 0 004.962 1.627h7.138V29.478a8.665 8.665 0 01-2.557 2.224zm0 14.938h-4.73a4.315 4.315 0 01-2.971-1.079 3.636 3.636 0 01-1.1-2.771 3.531 3.531 0 011.1-2.789 4.585 4.585 0 013.12-.963h4.581z"/>
                </g>
            </g>
            <g data-name="Group 526">
                <g data-name="Group 525">
                    <path data-name="Path 570" d="M23.619 32.831a9.094 9.094 0 01-3.22-.98l-4.548 2.623-2.274-3.95a7.518 7.518 0 00-3.834-3.6 5.486 5.486 0 00-4.631.647 5.477 5.477 0 00-2.8 3.7 7.058 7.058 0 001.079 5.112l3.552 6.174 16.731-9.66zm-16.15 6.473l-2.357-4.083a4.315 4.315 0 01-.564-3.137 3.74 3.74 0 011.859-2.324 3.577 3.577 0 012.954-.448 4.64 4.64 0 012.39 2.241l2.291 3.95z"/>
                </g>
            </g>
            <g data-name="Group 528">
                <g data-name="Group 527">
                    <path data-name="Path 571" d="M15.735 24.333l-4.282-2.473 2.273-3.934a7.537 7.537 0 001.212-5.129 5.487 5.487 0 00-2.888-3.685 5.49 5.49 0 00-4.6-.581 7.062 7.062 0 00-3.884 3.5l-3.568 6.158 16.548 9.544a8.337 8.337 0 01-.811-3.4zm-12.664-7.3l2.373-4.083a4.228 4.228 0 012.423-2.058 3.625 3.625 0 012.938.448 3.463 3.463 0 011.859 2.324 4.562 4.562 0 01-.73 3.2l-2.291 3.967z"/>
                </g>
            </g>
            <g data-name="Group 530">
                <g data-name="Group 529">
                    <path data-name="Path 572" d="M29.706 1.627A7.15 7.15 0 0024.744 0h-7.121v18.556a8.432 8.432 0 012.54-2.19v-4.615h4.547a7.511 7.511 0 005.046-1.51 5.449 5.449 0 001.76-4.332 5.5 5.5 0 00-1.81-4.282zm-1.842 7.087a4.585 4.585 0 01-3.12.963h-4.581V2.093h4.73a4.237 4.237 0 012.971 1.062 3.665 3.665 0 011.1 2.772 3.531 3.531 0 01-1.096 2.787z"/>
                </g>
            </g>
        </g>
    </g>
</svg>
