<svg xmlns="http://www.w3.org/2000/svg" viewBox="0 0 59.432 51.375">
    <g data-name="Group 3720">
        <g data-name="icon reputation index">
            <g data-name="Relevance icon">
                <path data-name="Path 463" d="M16.368 33.273L3.775 48.932h55.418v2.443H0V0h2.443v33.969l13.5-16.783 12.471 9.259L41.838 8.538l8.123 8.123 3.5-3.665 1.869 1.576-5.209 5.705-8.013-8.013-13.2 17.589-12.532-9.3L2.44 37.865v8.819l13.5-16.771 12.471 9.259 13.485-17.98 12.178 12.08-1.832 1.612-10.2-9.821L28.9 42.58z"/>
            </g>
        </g>
        <g data-name="Group 3519">
            <path data-name="Path 2648" d="M59.159 4.863v1.624h-2.42v2.42h-1.624v-2.42h-2.42V4.863h2.42v-2.42h1.624v2.42z"/>
        </g>
        <g data-name="Group 3520">
            <path data-name="Rectangle 981" d="M52.969 40.308h6.463v1.624h-6.463z"/>
        </g>
    </g>
</svg>
