<svg xmlns="http://www.w3.org/2000/svg" viewBox="0 0 19.576 32.877">
    <g data-name="Group 3919">
        <g data-name="Group 3906">
            <g data-name="Group 3905">
                <path data-name="Path 3323" d="M17.737 6.381h-2.928v-1.24a1.84 1.84 0 00-1.84-1.839h-2.59V.592a.59.59 0 00-.591-.591.586.586 0 00-.417.173.587.587 0 00-.173.418v2.71h-2.59a1.84 1.84 0 00-1.839 1.839v1.24H1.841A1.839 1.839 0 00.002 8.22v22.817a1.839 1.839 0 001.839 1.839h15.9a1.839 1.839 0 001.839-1.839V8.22a1.839 1.839 0 00-1.843-1.839zM5.949 5.141a.659.659 0 01.658-.658h6.362a.659.659 0 01.658.658v1.24H5.949zm6.75 26.465a.217.217 0 01-.02.089H6.9a.209.209 0 01-.019-.089v-5.39A.216.216 0 017.096 26h5.391a.217.217 0 01.216.216zm5.7-.569a.659.659 0 01-.659.658h-4.114a.773.773 0 000-.089v-5.39a1.145 1.145 0 00-1.144-1.144H7.091a1.145 1.145 0 00-1.144 1.144v5.39a.773.773 0 000 .089H1.833a.659.659 0 01-.658-.658V8.22a.659.659 0 01.658-.658h15.9a.659.659 0 01.659.658z"/>
            </g>
        </g>
        <g data-name="Group 3908">
            <g data-name="Group 3907">
                <path data-name="Path 3324" d="M6.664 12.245H4.137a.571.571 0 01-.55-.591.571.571 0 01.55-.591h2.527a.572.572 0 01.551.591.572.572 0 01-.551.591z"/>
            </g>
        </g>
        <g data-name="Group 3910">
            <g data-name="Group 3909">
                <path data-name="Path 3325" d="M6.664 16.464H4.137a.572.572 0 01-.55-.591.571.571 0 01.55-.591h2.527a.572.572 0 01.551.591.572.572 0 01-.551.591z"/>
            </g>
        </g>
        <g data-name="Group 3912">
            <g data-name="Group 3911">
                <path data-name="Path 3326" d="M6.664 20.683H4.137a.571.571 0 01-.55-.591.571.571 0 01.55-.591h2.527a.572.572 0 01.551.591.572.572 0 01-.551.591z"/>
            </g>
        </g>
        <g data-name="Group 3914">
            <g data-name="Group 3913">
                <path data-name="Path 3327" d="M15.355 12.245h-2.527a.572.572 0 01-.551-.591.572.572 0 01.551-.591h2.527a.571.571 0 01.551.591.572.572 0 01-.551.591z"/>
            </g>
        </g>
        <g data-name="Group 3916">
            <g data-name="Group 3915">
                <path data-name="Path 3328" d="M15.355 16.464h-2.527a.572.572 0 01-.551-.591.572.572 0 01.551-.591h2.527a.571.571 0 01.551.591.572.572 0 01-.551.591z"/>
            </g>
        </g>
        <g data-name="Group 3918">
            <g data-name="Group 3917">
                <path data-name="Path 3329" d="M15.355 20.683h-2.527a.572.572 0 01-.551-.591.572.572 0 01.551-.591h2.527a.571.571 0 01.551.591.571.571 0 01-.551.591z"/>
            </g>
        </g>
    </g>
</svg>
