<svg data-name="DASHBOARD VIEW ICON" xmlns="http://www.w3.org/2000/svg" viewBox="0 0 50 43">
    <g data-name="Dashboard view icon">
        <g data-name="Group 289">
            <g data-name="Group 288">
                <path data-name="Rectangle 232" d="M48.16 40.89h1v1.6h-1z"/>
            </g>
        </g>
        <g data-name="Group 290">
            <path data-name="Path 461" d="M.18 0v42.49h47.98v-1.6H1.77V10.25h46.39v30.64h1v1.6h1V0zm47.98 8.25H1.77V2h46.39z"/>
            <path data-name="Rectangle 233" d="M48.16 40.89h1v1.6h-1z"/>
        </g>
        <g data-name="Group 291">
            <path data-name="Path 462" d="M36.49 14.17a8.735 8.735 0 108.74 8.73 8.747 8.747 0 00-8.74-8.73zm-6.74 8.73a6.624 6.624 0 01.4-2.28l4.86 2.62-3.23 4.47a6.679 6.679 0 01-2.03-4.81zm6.74 6.74a6.6 6.6 0 01-3.09-.76l4.57-6.32-6.86-3.7a6.735 6.735 0 115.38 10.78z"/>
        </g>
        <g data-name="Group 292">
            <path data-name="Rectangle 234" d="M28.75 35.51h15.48v2H28.75z"/>
        </g>
        <g data-name="Group 293">
            <path data-name="Rectangle 235" d="M5.54 31.39h15.47v2H5.54z"/>
        </g>
        <g data-name="Group 294">
            <path data-name="Rectangle 236" d="M5.54 35.51h15.47v2H5.54z"/>
        </g>
        <g data-name="Group 295">
            <path data-name="Rectangle 237" d="M8.23 19.66h2v9.23h-2z"/>
        </g>
        <g data-name="Group 296">
            <path data-name="Rectangle 238" d="M12.01 14.91h2v13.98h-2z"/>
        </g>
        <g data-name="Group 297">
            <path data-name="Rectangle 239" d="M16.32 12.89h2v16h-2z"/>
        </g>
    </g>
</svg>
