<svg xmlns="http://www.w3.org/2000/svg" viewBox="0 0 32.069 25.476">
    <g data-name="Group 3878">
        <g data-name="Group 3875">
            <path data-name="Path 3295" d="M30.278 7.311a.3.3 0 000-.546C27.63 5.65 25.171 4.613 22.711 3.58c-2-.841-4-1.689-6.021-2.5a1.6 1.6 0 00-1.077-.1C11.001 2.873 6.405 4.801 1.634 6.793a.258.258 0 000 .476c1.659.7 3.2 1.354 4.75 1.973 2.208.879 2.215.862 2.208 3.264 0 1.106.042 2.215-.027 3.317a1.811 1.811 0 001.234 1.99 17.541 17.541 0 003.631 1.024 15.661 15.661 0 008.7-.941.394.394 0 01.116-.032.453.453 0 01.355.78.386.386 0 01-.14.084 22.631 22.631 0 01-4 1.081 16.084 16.084 0 01-8.973-1.085 2.86 2.86 0 01-1.862-3c.083-1.3-.007-2.6.055-3.9a1.185 1.185 0 00-.862-1.381C4.703 9.62 2.619 8.727.533 7.819a1.106 1.106 0 01-.21-.122.79.79 0 01.131-1.357h.01c4.919-2.1 9.843-4.185 14.79-6.217a2.408 2.408 0 011.654.053c4.926 2.012 9.833 4.073 14.735 6.145a.915.915 0 01.417.8.794.794 0 01-.458.661 152.067 152.067 0 01-5.507 2.292.451.451 0 01-.056.019.446.446 0 01-.307-.832h.008c1.558-.702 2.791-1.218 4.538-1.95z"/>
        </g>
        <g data-name="Group 3876">
            <path data-name="Path 3296" d="M24.334 20.336c.014-.179.018-.449.022-.85 0-2.922-.021-5.844.006-8.765a1.152 1.152 0 00-.813-1.257c-1.844-.708-3.675-1.446-5.516-2.165a17.768 17.768 0 00-1.825-.646.256.256 0 00-.125 0 .459.459 0 00-.189.779l.007.006a2.1 2.1 0 00.609.289c2.048.807 4.09 1.629 6.15 2.4.522.2.781.42.774 1.028-.032 2.541-.022 8.438.022 9.176a1.16 1.16 0 00-1.012 1.149v2.83a1.161 1.161 0 001.16 1.159h.595a1.161 1.161 0 001.159-1.159v-2.83a1.162 1.162 0 00-1.024-1.144zm.142 3.982a.278.278 0 01-.278.279h-.595a.279.279 0 01-.279-.279v-2.83a.278.278 0 01.279-.278h.595a.278.278 0 01.278.278z"/>
        </g>
        <g data-name="Group 3877">
            <path data-name="Path 3297" d="M16.447 14.114a1.407 1.407 0 01-.981-.041c-1.971-.828-3.472-1.442-5.427-2.3l-.041-.021a.431.431 0 01.329-.783.5.5 0 01.065.02c1.809.709 3.11 1.3 4.927 1.986a2.2 2.2 0 001.435-.01c1.784-.679 2.852-1.191 4.627-1.894l.045-.016a.431.431 0 01.365.762.464.464 0 01-.08.046c-1.892.846-3.129 1.37-5.04 2.175a2.19 2.19 0 01-.224.076z"/>
        </g>
    </g>
</svg>
