<svg xmlns="http://www.w3.org/2000/svg" viewBox="0 0 24.673 27.706">
    <g data-name="Group 3920">
        <g data-name="Group 3898">
            <g data-name="Group 3895">
                <g data-name="Group 3894">
                    <path data-name="Path 3313" d="M24.527 22.779l-2.611-3.722-.17-.244q.247-.3.472-.62a11.491 11.491 0 002.122-6.666A11.54 11.54 0 0012.812 0a11.548 11.548 0 00-11.03 8.176 11.5 11.5 0 00-.5 3.351c0 .19 0 .379.014.566a11.542 11.542 0 0011.513 10.961 11.417 11.417 0 004.745-1.02l1.253.411 2.007.658 2.791.914a.81.81 0 00.253.041.813.813 0 00.653-.329.813.813 0 00.016-.95zm-4.051-1.12l-1.274-.417-1.557-.511a.455.455 0 00-.141-.023.46.46 0 00-.2.046 10.146 10.146 0 01-4.493 1.034A10.273 10.273 0 012.55 11.526a10.26 10.26 0 01.384-2.788 10.243 10.243 0 011.672-3.369 10.255 10.255 0 018.205-4.1 10.273 10.273 0 0110.262 10.262 10.275 10.275 0 01-.37 2.736 10.222 10.222 0 01-1.639 3.365 10.179 10.179 0 01-.683.828.455.455 0 00-.037.565l.129.184.822 1.172 1.413 2.015z"/>
                </g>
            </g>
            <g data-name="Group 3897">
                <g data-name="Group 3896">
                    <path data-name="Path 3314" d="M16.019 24.402c-.1.048-.2.094-.3.139q.215-.084.427-.179a.484.484 0 00-.127.04z"/>
                    <path data-name="Path 3315" d="M23.229 27.377a.817.817 0 01-.654.329.8.8 0 01-.253-.041l-6.051-1.983a11.418 11.418 0 01-4.744 1.02A11.541 11.541 0 010 15.175v-.034a.45.45 0 01.027-.159 11.56 11.56 0 007.749 9.744 10.212 10.212 0 003.748.709 10.121 10.121 0 004.2-.9q.215-.084.428-.179a.444.444 0 01.067-.006.445.445 0 01.142.023l5.064 1.661-.017-.024-.594-.847a.323.323 0 01.261-.509.326.326 0 01.1.017 3.434 3.434 0 011.742 1.291l.137.195.185.264a.814.814 0 01-.01.956z"/>
                </g>
            </g>
            <path data-name="Path 3316" d="M9.268 11.843H7.449v1.864H6.321V9.028h3.13v.871h-2v1.077H9.27z"/>
            <path data-name="Path 3317" d="M13.295 12.833h-1.546l-.27.874h-1.205l1.716-4.679h1.061l1.729 4.679h-1.211zm-1.275-.871h1.006l-.5-1.623z"/>
            <path data-name="Path 3318" d="M19.663 11.464a2.757 2.757 0 01-.216 1.133 1.968 1.968 0 01-.595.776l.755.6-.7.591-1.006-.81a2.086 2.086 0 01-.283.019 2.028 2.028 0 01-1.061-.276 1.882 1.882 0 01-.722-.791 2.685 2.685 0 01-.268-1.183v-.247a2.765 2.765 0 01.252-1.215 1.874 1.874 0 01.72-.81 2.012 2.012 0 011.072-.286 2 2 0 011.061.283 1.905 1.905 0 01.725.805 2.7 2.7 0 01.262 1.2zm-1.147-.2a1.973 1.973 0 00-.233-1.059.748.748 0 00-.667-.361.743.743 0 00-.672.357 1.993 1.993 0 00-.228 1.044v.215a2.025 2.025 0 00.228 1.059.747.747 0 00.678.368.737.737 0 00.661-.363 1.986 1.986 0 00.233-1.045z"/>
        </g>
    </g>
</svg>
