<svg xmlns="http://www.w3.org/2000/svg" viewBox="0 0 27.533 25.01">
    <g data-name="Group 3763">
        <g data-name="Group 3698">
            <path data-name="Path 3224" d="M14.106.163a.569.569 0 00-.384-.148h-.032a.569.569 0 00-.384.149l.013-.013a.571.571 0 01.774 0z"/>
        </g>
        <g data-name="Group 3699">
            <path data-name="Path 3225" d="M3.979 8.7a.573.573 0 00-.173.409v-.252z"/>
        </g>
        <g data-name="Group 3700">
            <path data-name="Path 3226" d="M8.711.015H4.812l-.053.007a1.12 1.12 0 00-.953 1.109v5.553l1.142-1.043v-4.49h3.734a.087.087 0 01.009.041v1.03l1.142-1.043v.013A1.155 1.155 0 008.711.015zM3.806 8.857v.252a.573.573 0 01.173-.409z"/>
        </g>
        <g data-name="Group 3702">
            <path data-name="Path 3228" d="M17.02 15.558h-6.633a1.189 1.189 0 00-1.188 1.188v8.265h1.142v-8.265a.046.046 0 01.046-.046h6.633a.045.045 0 01.046.046v8.265h1.142v-8.265a1.189 1.189 0 00-1.188-1.188z"/>
        </g>
        <g data-name="Group 3703">
            <path data-name="Path 3229" d="M22.711 23.868h-5.646v1.142h5.666a1.123 1.123 0 001.122-1.122V12.573l-1.142-1.043z"/>
            <path data-name="Path 3230" d="M4.948 11.356l-1.142 1.043v11.487a1.123 1.123 0 001.122 1.122h5.412v-1.142H4.948z"/>
            <path data-name="Path 3231" d="M23.854 10.567l.081.074-6.934-6.312 6.933 6.312 2.644 2.4a.571.571 0 10.768-.845l-3.68-3.345L14.115.168 14.106.16a.568.568 0 00-.384-.148h-.032a.57.57 0 00-.385.149l-3.47 3.176-1.142 1.045L4.95 7.807l-.956.875-.009.008a.574.574 0 00-.172.409v-.252l-3.62 3.3a.571.571 0 10.769.844l2.851-2.6.95-.865.007-.006.186-.169 4.7-4.3.008-.008 4.051-3.708 9 8.185"/>
        </g>
    </g>
</svg>
