<svg xmlns="http://www.w3.org/2000/svg" viewBox="0 0 28.158 25.198">
    <g data-name="Group 3873">
        <g data-name="Group 3872">
            <path data-name="Path 3293" d="M20.654 9.053V2.866a2.87 2.87 0 00-2.867-2.867H2.867A2.87 2.87 0 000 2.866v19.465a2.87 2.87 0 002.867 2.867h14.921a2.87 2.87 0 002.867-2.867v-7.495h-1.17v7.495a1.7 1.7 0 01-1.7 1.7H2.867a1.7 1.7 0 01-1.7-1.7V2.866a1.7 1.7 0 011.7-1.7h14.921a1.7 1.7 0 011.7 1.7v6.187z"/>
        </g>
        <path data-name="Path 3294" d="M23.105 14.829v-2.333H9.983v-1.17h13.122V8.993l5.053 2.918z"/>
    </g>
</svg>
