<svg xmlns="http://www.w3.org/2000/svg" viewBox="0 0 56.561 45.431">
    <g data-name="Group 3280">
        <g data-name="Group 3272" transform="translate(-2371.86 -1395.97)">
            <path data-name="Path 2615" d="M2381.965 1436.899a3.445 3.445 0 11-3.444-3.445 3.448 3.448 0 013.444 3.445z"/>
            <path data-name="Path 2616" d="M2378.751 1426.999a3.445 3.445 0 11-3.445-3.446 3.449 3.449 0 013.445 3.446z"/>
            <path data-name="Path 2617" d="M2379.872 1416.6a3.445 3.445 0 11-3.445-3.444 3.449 3.449 0 013.445 3.444z"/>
            <path data-name="Path 2618" d="M2385.085 1407.634a3.445 3.445 0 11-3.445-3.444 3.449 3.449 0 013.445 3.444z"/>
            <path data-name="Path 2619" d="M2393.428 1401.532a3.445 3.445 0 11-3.444-3.445 3.449 3.449 0 013.444 3.445z"/>
            <circle data-name="Ellipse 158" cx="3.445" cy="3.445" r="3.445" transform="rotate(-22.5 4815.835 -5358.678)"/>
            <path data-name="Path 2620" d="M2428.421 1426.999a3.445 3.445 0 11-3.445-3.446 3.448 3.448 0 013.445 3.446z"/>
            <path data-name="Path 2621" d="M2427.301 1416.6a3.445 3.445 0 11-3.444-3.444 3.448 3.448 0 013.444 3.444z"/>
            <path data-name="Path 2622" d="M2422.088 1407.634a3.445 3.445 0 11-3.445-3.444 3.448 3.448 0 013.445 3.444z"/>
            <circle data-name="Ellipse 159" cx="3.445" cy="3.445" r="3.445" transform="translate(2406.854 1398.087)"/>
            <path data-name="Path 2623" d="M2403.64 1399.415a3.445 3.445 0 11-3.444-3.445 3.449 3.449 0 013.444 3.445z"/>
            <path data-name="Path 2624" d="M2403.502 1428.043a3.138 3.138 0 01-2.223 3.556 4.077 4.077 0 01-2.168 0 3.138 3.138 0 01-2.223-3.556l3.307-19.442 3.308 19.441z"/>
        </g>
    </g>
</svg>
