<svg xmlns="http://www.w3.org/2000/svg" viewBox="0 0 29.056 21.127">
    <g data-name="Group 3879">
        <path data-name="Path 3298" d="M28.467 1.758q-3.9.01-7.8 0h-.411V.617c0-.494-.125-.62-.619-.621H9.393c-.453 0-.589.138-.59.592v1.168H.618a.61.61 0 00-.617.3v17.025a.655.655 0 00.627.287q3.9-.011 7.791 0h.384c0 .383.014.757 0 1.129a.653.653 0 00.283.631h10.9a.653.653 0 00.284-.631c-.017-.365 0-.731 0-1.129h8.174a.657.657 0 00.627-.288V2.055a.591.591 0 00-.604-.297zM8.777 18.467H.904V2.653h7.873zm10.57 1.757h-9.64V.888h9.64zm8.81-1.768h-7.883v-15.8h7.883z"/>
        <path data-name="Path 3299" d="M14.538 4.394a2.641 2.641 0 102.633 2.641 2.655 2.655 0 00-2.633-2.641zm-.025 4.41a1.77 1.77 0 01-1.744-1.758 1.76 1.76 0 113.519 0 1.771 1.771 0 01-1.775 1.758z"/>
        <path data-name="Path 3300" d="M17.142 12.462a.442.442 0 01-.462.3h-4.306a.44.44 0 01-.484-.443c0-.265.2-.438.515-.44h2.153c.718 0 1.417-.006 2.125 0a.439.439 0 01.459.583z"/>
        <path data-name="Path 3301" d="M15.842 15.402c0 .273-.185.439-.507.443h-1.64a.437.437 0 01-.481-.441.428.428 0 01.478-.443q.834-.013 1.668 0a.429.429 0 01.482.441z"/>
        <path data-name="Path 3302" d="M24.279 4.84a2.2 2.2 0 102.131 2.237 2.2 2.2 0 00-2.131-2.237zm-.052 3.518a1.319 1.319 0 111.308-1.325 1.327 1.327 0 01-1.308 1.325z"/>
        <path data-name="Path 3303" d="M26.409 12.31c.005.279-.187.455-.529.456q-1.671.005-3.342 0c-.337 0-.531-.181-.521-.462s.2-.422.527-.424h3.342c.323.002.518.167.523.43z"/>
        <path data-name="Path 3304" d="M25.534 15.396a.449.449 0 01-.478.45c-.282.008-.566 0-.848 0-.284 0-.566.007-.849 0a.444.444 0 01-.468-.43.437.437 0 01.45-.448 41.285 41.285 0 011.724 0 .443.443 0 01.469.428z"/>
        <path data-name="Path 3305" d="M4.851 4.84A2.2 2.2 0 107.04 7.048 2.2 2.2 0 004.851 4.84zm-.014 3.519a1.319 1.319 0 111.327-1.307 1.324 1.324 0 01-1.326 1.307z"/>
        <path data-name="Path 3306" d="M7.04 12.332c-.006.267-.2.433-.521.435q-1.671.006-3.342 0c-.34 0-.534-.176-.53-.455s.2-.43.55-.431h3.314c.342.002.536.172.529.451z"/>
        <path data-name="Path 3307" d="M6.164 15.409a.456.456 0 01-.493.438c-.283.006-.565 0-.848 0-.274 0-.547.005-.82 0a.442.442 0 11-.02-.881q.849-.016 1.7 0a.449.449 0 01.481.443z"/>
    </g>
</svg>
