<svg xmlns="http://www.w3.org/2000/svg" viewBox="0 0 39 39">
    <g data-name="profile icon">
        <g data-name="Ellipse 37" fill="none" stroke="currentColor" transform="translate(1 1)">
            <circle data-name="Ellipse 58" cx="18.5" cy="18.5" r="18.5"/>
            <path data-name="Path 3189" d="M18.5 0A18.5 18.5 0 110 18.5 18.5 18.5 0 0118.5 0z" stroke-width="2"/>
        </g>
        <path data-name="Path 514" d="M27.067 14.99a7.5 7.5 0 01-3.909 6.586 7.459 7.459 0 01-3.591.915 7.471 7.471 0 01-3.531-.882 7.5 7.5 0 01-3.969-6.325c0-.1-.006-.2-.006-.3a7.5 7.5 0 017.5-7.5 7.5 7.5 0 017.412 6.342 7.669 7.669 0 01.094 1.164z"/>
        <path data-name="Path 515" d="M25.27 22.289a7.822 7.822 0 01-5.791 2.551 7.825 7.825 0 01-5.83-2.6c-4.345 1.065-7.471 3.306-7.946 5.959a17.194 17.194 0 0013.776 6.887 17.2 17.2 0 0013.584-6.632c-.31-2.722-3.409-5.046-7.793-6.165z"/>
    </g>
</svg>
