<svg data-name="icon reputation sentiment" xmlns="http://www.w3.org/2000/svg" viewBox="0 0 47.24 48.592">
    <g data-name="Group 3364">
        <g data-name="Group 3363">
            <path data-name="Path 2928" d="M45.6 48.592a1.641 1.641 0 01-.511-.082L32.865 44.5a23.041 23.041 0 01-9.583 2.06 23.279 23.279 0 1118.043-8.566l5.618 8.009a1.642 1.642 0 01-1.345 2.586zm-12.84-7.495a1.643 1.643 0 01.512.082l8.15 2.672-3.518-5.016a1.643 1.643 0 01.133-2.052 19.968 19.968 0 10-6 4.481 1.641 1.641 0 01.72-.164z"/>
        </g>
    </g>
    <g data-name="Group 3362">
        <g data-name="Group 576">
            <path data-name="Path 592" d="M23.434 19.847a3.228 3.228 0 01-3.225-3.226h1.103a2.119 2.119 0 104.238 0h1.106a3.229 3.229 0 01-3.222 3.226z"/>
        </g>
        <g data-name="Group 577">
            <path data-name="Path 593" d="M19.564 28.802h-1.106a2.119 2.119 0 00-4.238 0h-1.106a3.226 3.226 0 016.451 0z"/>
        </g>
        <g data-name="Group 579">
            <g data-name="Group 578">
                <circle data-name="Ellipse 93" cx=".716" cy=".716" r=".716" transform="translate(13.201 22.832)"/>
            </g>
        </g>
        <g data-name="Group 581">
            <g data-name="Group 580">
                <circle data-name="Ellipse 94" cx=".716" cy=".716" r=".716" transform="translate(18.158 22.832)"/>
            </g>
        </g>
        <g data-name="Group 583">
            <g data-name="Group 582">
                <circle data-name="Ellipse 95" cx=".716" cy=".716" r=".716" transform="translate(27.209 22.832)"/>
            </g>
        </g>
        <g data-name="Group 585">
            <g data-name="Group 584">
                <circle data-name="Ellipse 96" cx=".716" cy=".716" r=".716" transform="translate(32.165 22.832)"/>
            </g>
        </g>
        <g data-name="Group 587">
            <g data-name="Group 586">
                <path data-name="Path 594" d="M30.677 17.886a7.528 7.528 0 00.286-2.056 7.622 7.622 0 10-15.243 0 7.528 7.528 0 00.286 2.056 7.619 7.619 0 107.334 10.611 7.62 7.62 0 107.336-10.611zm-14.338 14a6.39 6.39 0 110-12.779 1.055 1.055 0 01.126.005 7.645 7.645 0 005.9 4.268 6.285 6.285 0 01.362 2.117 6.4 6.4 0 01-6.39 6.392zm7-9.672a1.138 1.138 0 01-.13-.005 5.935 5.935 0 01-1.533-.216 6.372 6.372 0 01-3.67-2.664 6.286 6.286 0 01-.694-1.388 6.39 6.39 0 1112.056 0 6.287 6.287 0 01-.694 1.388 6.375 6.375 0 01-3.665 2.664 5.972 5.972 0 01-1.533.216 1.228 1.228 0 01-.134.006zm7 9.672a6.4 6.4 0 01-6.385-6.389 6.281 6.281 0 01.362-2.116 7.631 7.631 0 005.9-4.269 1.056 1.056 0 01.126-.005 6.392 6.392 0 010 12.783z"/>
            </g>
        </g>
        <g data-name="Group 589">
            <g data-name="Group 588">
                <path data-name="Path 595" d="M21.637 13.878a.715.715 0 11-.715-.715.716.716 0 01.715.715z"/>
            </g>
        </g>
        <g data-name="Group 591">
            <g data-name="Group 590">
                <path data-name="Path 596" d="M26.593 13.878a.715.715 0 11-.715-.715.716.716 0 01.715.715z"/>
            </g>
        </g>
        <g data-name="Group 592">
            <path data-name="Rectangle 846" d="M27.818 26.513h5.063v1.106h-5.063z"/>
        </g>
    </g>
</svg>
