<svg xmlns="http://www.w3.org/2000/svg" viewBox="0 0 49.921 51.608">
    <g data-name="Group 3334">
        <g data-name="Group 3332">
            <g data-name="Group 3325">
                <g data-name="Group 3324">
                    <path data-name="Path 2916" d="M30.851 20.479h-18.75a1.13 1.13 0 100 2.26h18.75a1.13 1.13 0 100-2.26zm-14.76-3.324h10.9a1.13 1.13 0 000-2.261h-10.9a1.13 1.13 0 100 2.261zm10.9 8.909h-10.9a1.13 1.13 0 100 2.261h10.9a1.13 1.13 0 000-2.261z"/>
                    <path data-name="Path 2917" d="M21.477 5.652A16.024 16.024 0 009.059 31.804l-2.181 3.109-1.325 1.888-.362.516a1.13 1.13 0 00.926 1.779 1.155 1.155 0 00.352-.056l1.142-.375 2.638-.865 4.63-1.519a15.851 15.851 0 006.6 1.418 16.024 16.024 0 000-32.048zm0 29.787a13.618 13.618 0 01-6.025-1.387 1.137 1.137 0 00-.848-.058l-5.609 1.839 2.422-3.452a1.131 1.131 0 00-.092-1.412 13.764 13.764 0 1110.153 4.471z"/>
                </g>
            </g>
            <g data-name="Group 3327">
                <g data-name="Group 3326">
                    <path data-name="Path 2918" d="M28.126 16.024c0 .624-.333 1.13-.742 1.13h-7.16c-.409 0-.742-.507-.742-1.13s.333-1.13.742-1.13h7.16c.409 0 .742.507.742 1.13z"/>
                </g>
            </g>
            <g data-name="Group 3329">
                <g data-name="Group 3328">
                    <path data-name="Path 2919" d="M28.126 27.194a1.131 1.131 0 01-1.13 1.13h-10.9a1.13 1.13 0 110-2.261h10.9a1.131 1.131 0 011.13 1.131z"/>
                </g>
            </g>
            <g data-name="Group 3331">
                <g data-name="Group 3330">
                    <path data-name="Path 2920" d="M31.982 21.609a1.131 1.131 0 01-1.13 1.13h-18.75a1.13 1.13 0 110-2.261h18.75a1.131 1.131 0 011.13 1.131z"/>
                </g>
            </g>
        </g>
        <g data-name="Group 3333">
            <path data-name="Path 2921" d="M21.543 0A21.532 21.532 0 004.556 34.778l1.366-1.945a19.257 19.257 0 117.522 6.207l-2.975.976A21.541 21.541 0 1021.543 0z"/>
        </g>
        <g data-name="Line 105">
            <path data-name="Rectangle 1105" d="M36.18 39.783l1.576-1.621L49.92 49.987l-1.576 1.621z"/>
        </g>
    </g>
</svg>
