<svg xmlns="http://www.w3.org/2000/svg" viewBox="0 0 24 24">
    <g data-name="Group 3687">
        <g data-name="Group 3686">
            <path data-name="Polygon 22" d="M9.358 2.105a3 3 0 015.283 0l8.977 16.672a3 3 0 01-2.642 4.423H3.022a3 3 0 01-2.641-4.422z" fill="#ed346a"/>
            <g data-name="Group 3643">
                <g data-name="Group 3642" fill="#efefed">
                    <path data-name="Path 3206" d="M12.169 15.404h-.338a1.09 1.09 0 01-1.09-1.09V6.421a1.09 1.09 0 011.09-1.089h.338a1.09 1.09 0 011.09 1.09v7.892a1.09 1.09 0 01-1.09 1.09"/>
                    <path data-name="Path 3207" d="M12 19.757a1.419 1.419 0 111.419-1.419A1.419 1.419 0 0112 19.757"/>
                </g>
            </g>
        </g>
    </g>
</svg>
