<svg xmlns="http://www.w3.org/2000/svg" viewBox="0 0 122 110.512">
    <g data-name="Group 3">
        <g data-name="Group 3">
            <path data-name="Path 2" d="M0 80.224v3.781h3.687v25.813h3.866V84.005h3.554v-3.776z"/>
            <path data-name="Path 3" d="M13.416 109.813V80.224h9.464v3.643h-5.6v8.93h3.909v3.507H17.28v9.819h5.6v3.688z"/>
            <path data-name="Path 4" d="M24.923 109.813V80.224h3.865v25.9h5.375v3.688z"/>
            <path data-name="Path 5" d="M36.072 109.813V80.224h9.464v3.643h-5.6v8.93h3.909v3.507h-3.909v9.819h5.6v3.688z"/>
        </g>
        <path data-name="Path 6" d="M52.76 110.512c-3.3 0-5.3-2.311-5.3-6.045v-3.2h3.34v3.334c0 1.556.627 2.489 1.837 2.489 1.294 0 1.92-.89 1.92-2.356 0-2.757-1-4.979-2.922-8-1.8-2.712-4.008-6.712-4.008-10.135 0-3.734 1.711-6.579 5.344-6.579 3.006 0 4.968 2.311 4.968 6.046v3.378h-3.3v-3.511c0-1.467-.584-2.357-1.67-2.357-1.044 0-1.8.756-1.8 2.135 0 3.29 1.044 4.845 3.132 8.224 2.129 3.334 3.8 6.668 3.8 10.091 0 4.668-2.672 6.49-5.344 6.49"/>
        <path data-name="Path 7" d="M93.833 97.818H91.7v12h-3.865V80.224h6c2.532 0 4.842 1.377 4.842 5.331v6.931c0 3.91-2.31 5.332-4.842 5.332m1.022-12.307c0-1.155-.4-1.688-1.244-1.688h-1.911v10.619h1.911c.844 0 1.244-.578 1.244-1.689z"/>
        <path data-name="Path 8" d="M100.718 109.813V80.224h9.464v3.643h-5.6v8.93h3.909v3.507h-3.909v9.819h5.6v3.688z"/>
        <path data-name="Path 9" d="M116.493 80.234v.709h-1.266v3.379h-.972v-3.379h-1.28v-.709zm2.16 0l1.064 2.715 1-2.715h1.281v4.088h-.865v-3.224l-1.2 3.224h-.447l-1.25-3.224v3.224h-.864v-4.088z"/>
        <path data-name="Path 10" d="M24.758 35.856a16.783 16.783 0 00-4.829 4.952 16.016 16.016 0 00-2.257 6.024 17.223 17.223 0 00.248 6.431 17.8 17.8 0 002.742 6.18l.053.079a18 18 0 004.8 4.8 16.6 16.6 0 005.9 2.518 16.213 16.213 0 006.354.024 16.391 16.391 0 006.15-2.621 20.288 20.288 0 003.249-2.722 14.274 14.274 0 001.437-1.794s-9.326 1.136-15.606.264a10.837 10.837 0 01-3.491-1.674 11.979 11.979 0 01-2.881-2.965l-.053-.081a11.747 11.747 0 01-1.718-3.733 10.641 10.641 0 01-.277-3.857 23.118 23.118 0 01.742-2.879l.019-.048 4.775-11.551a17.992 17.992 0 00-1.762.635 20.548 20.548 0 00-3.6 2.014"/>
        <path data-name="Path 11" d="M72.121.663A33.316 33.316 0 0058.93.655c-.6.112-1.189.24-1.771.379A33.069 33.069 0 0046.61 5.51a30.976 30.976 0 00-13.514 19.574 30.713 30.713 0 00-.105 12.383l.035.184a31.253 31.253 0 004.6 11.5 29.883 29.883 0 008.36 8.424 32.287 32.287 0 0011.262 4.655 33.322 33.322 0 0013.189.007 33.686 33.686 0 0012.321-4.854 30.955 30.955 0 0013.514-19.576 30.668 30.668 0 00.105-12.382l-.035-.186a31.206 31.206 0 00-4.6-11.5 29.924 29.924 0 00-8.358-8.424A32.318 32.318 0 0072.121.661m14.407 26.635l.041.326a23.975 23.975 0 01.026 8.819 23.336 23.336 0 01-3.065 7.981 20.73 20.73 0 01-6 6.223 21.894 21.894 0 01-7.307 3.189q-.564.135-1.14.245a21.622 21.622 0 01-9.211-.144 22.213 22.213 0 01-13.767-9.957 24.35 24.35 0 01-3.238-8.385l-.036-.185a24 24 0 01-.05-8.957 23.262 23.262 0 013.064-7.98 20.862 20.862 0 015.947-6.207 22.182 22.182 0 018.505-3.449 21.73 21.73 0 019.151.149 22.08 22.08 0 0113.826 9.95 24.4 24.4 0 013.259 8.382"/>
        <g data-name="Group 5">
            <g data-name="Group 4">
                <path data-name="Path 12" d="M3.266 77.692l-1.571-4.146v4.146H.454v-6.348h1.571l1.7 4.476 1.685-4.476h1.551v6.348H5.71v-4.146l-1.54 4.146z"/>
                <path data-name="Path 13" d="M12.021 71.344h1.4l-2.305 3.939v2.409H9.803v-2.409l-2.285-3.939h1.437l1.54 2.688z"/>
            </g>
        </g>
        <path data-name="Path 14" d="M85.117 85.77c-.052-4.428-3.759-7.146-7.734-5.776a5.807 5.807 0 00-3.8 5.753c-.045 3.055-.011 6.112-.011 9.167v9.279c0 .112 0 .224.011.336.175 3.5 2.49 5.859 5.762 5.863s5.6-2.337 5.78-5.841c.031-.6.018-1.193.018-1.79-.006-5.661.038-11.33-.026-16.991zm-3.939 18.808c-.009 1.294-.637 1.985-1.734 2.032-1.2.049-1.886-.68-1.9-2.095-.018-3.353-.007-6.709-.007-10.062 0-2.983-.016-5.964.009-8.945.011-1.478.846-2.207 2.176-1.994.958.153 1.447.805 1.453 2.055.016 3.169 0 6.337 0 9.506s.02 6.334.003 9.503z"/>
        <path data-name="Path 15" d="M71.613 99.487a58.752 58.752 0 01-.46 7.09c-.484 2.665-2.968 4.118-5.76 3.8a5.615 5.615 0 01-5.06-5.5c-.078-4.25-.029-8.5-.034-12.752 0-2.2-.029-4.4.014-6.6a5.743 5.743 0 016.9-5.749 4.714 4.714 0 014.01 3.988c.3 2.227.256 4.5.366 6.821h-3.454c0-1.671.018-3.3-.007-4.923-.02-1.346-.565-2.03-1.633-2.151-1.359-.157-2.214.484-2.22 1.851q-.047 9.673 0 19.348a1.738 1.738 0 001.868 1.909 1.81 1.81 0 001.972-1.951c.056-1.7.016-3.409.016-5.177z"/>
    </g>
</svg>
