<svg xmlns="http://www.w3.org/2000/svg" viewBox="0 0 134.58 44">
    <g data-name="Group 3373">
        <g data-name="Group 3373">
            <path data-name="Path 3021" d="M.046 7.353v3.683h3.6V36.21h3.77V11.035h3.466V7.352z"/>
            <path data-name="Path 3022" d="M13.13 36.209V7.353h9.229v3.553H16.9v8.709h3.812v3.422H16.9v9.575h5.459v3.6z"/>
            <path data-name="Path 3023" d="M24.351 36.209V7.353h3.765v25.259h5.242v3.6z"/>
            <path data-name="Path 3024" d="M35.224 36.209V7.353h9.229v3.553h-5.459v8.709h3.812v3.422h-3.812v9.575h5.459v3.6z"/>
        </g>
        <path data-name="Path 3025" d="M51.499 36.89c-3.217 0-5.171-2.254-5.171-5.9v-3.122h3.254v3.252c0 1.518.611 2.427 1.792 2.427 1.262 0 1.872-.867 1.872-2.3 0-2.688-.977-4.856-2.849-7.8-1.751-2.644-3.909-6.546-3.909-9.885 0-3.641 1.669-6.416 5.211-6.416 2.931 0 4.845 2.254 4.845 5.9v3.295h-3.217v-3.424c0-1.431-.57-2.3-1.628-2.3-1.018 0-1.751.737-1.751 2.082 0 3.208 1.018 4.725 3.054 8.02 2.076 3.252 3.705 6.5 3.705 9.841 0 4.552-2.606 6.329-5.212 6.329"/>
        <path data-name="Path 3026" d="M110.556 24.51h-2.08v11.7h-3.769V7.353h5.849c2.469 0 4.722 1.343 4.722 5.2v6.759c0 3.813-2.253 5.2-4.722 5.2m1-12c0-1.126-.39-1.647-1.213-1.647h-1.863v10.356h1.863c.823 0 1.213-.563 1.213-1.647z"/>
        <path data-name="Path 3027" d="M117.273 36.209V7.353h9.229v3.553h-5.459v8.709h3.813v3.422h-3.812v9.575h5.459v3.6z"/>
        <path data-name="Path 3028" d="M130.687 7.498v.5h-.9v2.388h-.687V7.998h-.9v-.5zm1.526 0l.752 1.919.709-1.919h.905v2.888h-.612V8.107l-.85 2.279h-.316l-.883-2.279v2.279h-.61V7.497z"/>
        <path data-name="Path 3029" d="M63.955 18.013a8.922 8.922 0 00-3.11 1.964 8.517 8.517 0 00-1.912 2.837 9.161 9.161 0 00-.667 3.357 9.469 9.469 0 00.654 3.535l.018.047a9.578 9.578 0 001.888 3.074 8.833 8.833 0 002.739 2.031 8.626 8.626 0 003.284.8 8.72 8.72 0 003.505-.6 10.791 10.791 0 002.017-1.006 7.619 7.619 0 00.965-.75 40.258 40.258 0 01-8.1-1.792 5.763 5.763 0 01-1.6-1.3 6.365 6.365 0 01-1.124-1.89l-.018-.048a6.25 6.25 0 01-.427-2.144 5.659 5.659 0 01.333-2.029 12.316 12.316 0 01.74-1.4l.016-.022 3.9-5.38a9.557 9.557 0 00-.99.111 10.924 10.924 0 00-2.11.6"/>
        <path data-name="Path 3030" d="M92.803 5.662a17.717 17.717 0 00-6.822-1.634 19.514 19.514 0 00-.963-.023 17.583 17.583 0 00-6.009 1.012 16.472 16.472 0 00-9.409 8.455 16.332 16.332 0 00-1.585 6.392v.1a16.617 16.617 0 00.958 6.518 15.891 15.891 0 003.283 5.391 17.174 17.174 0 005.25 3.8 17.722 17.722 0 006.821 1.633 17.916 17.916 0 006.973-.988 16.463 16.463 0 009.409-8.455 16.312 16.312 0 001.585-6.392v-.1a16.6 16.6 0 00-.958-6.518 15.91 15.91 0 00-3.282-5.39 17.188 17.188 0 00-5.251-3.8m4.16 15.558l-.019.174a12.75 12.75 0 01-1.077 4.565 12.409 12.409 0 01-2.572 3.749 11.022 11.022 0 01-3.874 2.477 11.642 11.642 0 01-4.174.746c-.205 0-.412-.005-.62-.014a11.5 11.5 0 01-4.747-1.213 11.814 11.814 0 01-5.89-6.852 12.954 12.954 0 01-.638-4.738v-.1a12.762 12.762 0 011.081-4.64 12.366 12.366 0 012.571-3.749 11.093 11.093 0 013.843-2.475 11.8 11.8 0 014.825-.733 11.552 11.552 0 014.715 1.208 11.743 11.743 0 015.922 6.855 12.973 12.973 0 01.649 4.738"/>
        <g data-name="Group 3375">
            <g data-name="Group 3374">
                <path data-name="Path 3031" d="M2.381 5.375L1.05 1.865v3.51H0V0h1.331l1.436 3.79L4.194 0h1.313v5.375H4.448v-3.51l-1.3 3.51z"/>
                <path data-name="Path 3032" d="M9.794 0h1.182L9.024 3.335v2.04H7.912v-2.04L5.977 0h1.217l1.3 2.276z"/>
            </g>
        </g>
    </g>
</svg>
