<svg xmlns="http://www.w3.org/2000/svg" viewBox="0 0 23.136 22.145">
    <g data-name="Group 3874">
        <g data-name="Group 3620">
            <path data-name="Path 3209" d="M9.166 9.86H1.355A1.316 1.316 0 010 8.59V1.27A1.316 1.316 0 011.355 0h7.811a1.316 1.316 0 011.355 1.27v7.32a1.316 1.316 0 01-1.355 1.27zM1.355.877a.406.406 0 00-.418.392v7.32a.406.406 0 00.418.392h7.811a.407.407 0 00.419-.392v-7.32a.407.407 0 00-.419-.392z"/>
        </g>
        <g data-name="Group 3621">
            <path data-name="Path 3210" d="M21.781 22.145H13.97a1.336 1.336 0 01-1.355-1.312v-7.566a1.336 1.336 0 011.355-1.313h7.811a1.336 1.336 0 011.355 1.313v7.566a1.336 1.336 0 01-1.355 1.312zm-7.811-9.284a.412.412 0 00-.418.406v7.566a.412.412 0 00.418.406h7.811a.413.413 0 00.419-.406v-7.566a.413.413 0 00-.419-.406z"/>
        </g>
        <g data-name="Group 3622">
            <path data-name="Path 3211" d="M17.875 9.861a1.393 1.393 0 01-.958-.374l-3.813-3.6a1.233 1.233 0 010-1.811l3.813-3.6a1.413 1.413 0 011.917 0l3.814 3.6a1.233 1.233 0 010 1.811l-3.814 3.6a1.391 1.391 0 01-.959.374zm0-8.883a.428.428 0 00-.3.116l-3.814 3.6a.38.38 0 000 .559l3.814 3.6a.436.436 0 00.592 0l3.813-3.6a.379.379 0 000-.559l-3.813-3.6a.428.428 0 00-.292-.117z"/>
        </g>
        <g data-name="Group 3623">
            <path data-name="Path 3212" d="M5.265 22.145a5.1 5.1 0 115.1-5.1 5.1 5.1 0 01-5.1 5.1zm0-9.3a4.2 4.2 0 104.2 4.2 4.207 4.207 0 00-4.2-4.198z"/>
        </g>
    </g>
</svg>
